<?xml version="1.0" encoding="UTF-8" standalone="no"?>
<svg
   width="24"
   height="24"
   viewBox="0 0 24 24"
   fill="none"
   stroke="currentColor"
   stroke-width="2"
   stroke-linecap="round"
   stroke-linejoin="round"
   class="icon icon-tabler icons-tabler-outline icon-tabler-bulb"
   version="1.1"
   id="svg4"
   xmlns:xlink="http://www.w3.org/1999/xlink"
   xmlns="http://www.w3.org/2000/svg"
   xmlns:svg="http://www.w3.org/2000/svg">
  <defs
     id="defs4">
    <linearGradient
       id="linearGradient14">
      <stop
         style="stop-color:#d634c1;stop-opacity:0.5504325;"
         offset="0"
         id="stop14" />
      <stop
         style="stop-color:#15cdd7;stop-opacity:0.41028413;"
         offset="1"
         id="stop15" />
    </linearGradient>
    <linearGradient
       id="swatch7">
      <stop
         style="stop-color:#000000;stop-opacity:1;"
         offset="0"
         id="stop7" />
    </linearGradient>
    <linearGradient
       id="linearGradient5">
      <stop
         style="stop-color:#ff0808;stop-opacity:1;"
         offset="0"
         id="stop5" />
      <stop
         style="stop-color:#fffc39;stop-opacity:1;"
         offset="1"
         id="stop6" />
    </linearGradient>
    <linearGradient
       xlink:href="#linearGradient5"
       id="linearGradient6"
       x1="2"
       y1="7.5"
       x2="22"
       y2="7.5"
       gradientUnits="userSpaceOnUse" />
    <linearGradient
       xlink:href="#linearGradient14"
       id="linearGradient15"
       x1="5.9979777"
       y1="14.00025"
       x2="18.002022"
       y2="14.00025"
       gradientUnits="userSpaceOnUse" />
  </defs>
  <path
     stroke="none"
     d="M 0,0 H 24 V 24 H 0 Z"
     fill="none"
     id="path1" />
  <path
     d="m 3,12 h 1 m 8,-9 v 1 m 8,8 h 1 M 5.6,5.6 6.3,6.3 M 18.4,5.6 17.7,6.3"
     id="path2"
     style="fill:none;stroke:url(#linearGradient6);stroke-opacity:1" />
  <path
     d="m 9,16 a 5,5 0 1 1 6,0 3.5,3.5 0 0 0 -1,3 2,2 0 0 1 -4,0 3.5,3.5 0 0 0 -1,-3"
     id="path3"
     style="fill:url(#linearGradient15);fill-opacity:1" />
  <path
     d="m 9.7,17 h 4.6"
     id="path4" />
</svg>
